<svg xmlns="http://www.w3.org/2000/svg" xmlns:xlink="http://www.w3.org/1999/xlink" viewBox="0 0 64 64" version="1.1">
    <g id="surface1">
        <path style=" fill:#72CAAF;"
              d="M 59 31 C 59 46.464844 46.464844 59 31 59 C 15.535156 59 3 46.464844 3 31 C 3 15.535156 15.535156 3 31 3 C 46.464844 3 59 15.535156 59 31 Z "></path>
        <path style=" fill:#F9E3AE;"
              d="M 31 3 C 15.535156 3 3 15.535156 3 31 C 3 46.464844 15.535156 59 31 59 C 46.464844 59 59 46.464844 59 31 C 59 15.535156 46.464844 3 31 3 Z M 31 53 C 18.851563 53 9 43.148438 9 31 C 9 18.851563 18.851563 9 31 9 C 36.882813 9 42.226563 11.308594 46.175781 15.070313 C 46.40625 15.289063 46.628906 15.515625 46.851563 15.742188 C 47.109375 16.011719 47.359375 16.285156 47.605469 16.570313 C 50.964844 20.433594 53 25.476563 53 31 C 53 43.148438 43.148438 53 31 53 Z "></path>
        <path style=" fill:#F6D397;"
              d="M 31 53 C 18.851563 53 9 43.148438 9 31 L 7.339844 31 C 4.847656 31 2.976563 33.25 3.394531 35.707031 C 5.632813 48.929688 17.140625 59 31 59 C 44.859375 59 56.367188 48.929688 58.605469 35.707031 C 59.023438 33.25 57.152344 31 54.660156 31 L 53 31 C 53 43.148438 43.148438 53 31 53 Z "></path>
        <path style=" fill:#FFFFFF;"
              d="M 37 17 L 20.085938 33 L 29 33 L 24.070313 45 L 42.144531 29.011719 L 33.117188 29 Z "></path>
        <path style=" fill:#F9E3AE;"
              d="M 36.832031 17.390625 L 20.417969 33.167969 L 28 34 L 23.871094 45 L 42.363281 29.503906 L 33.929688 28.667969 Z "></path>
        <path style=" fill:#F6D397;"
              d="M 41.835938 29.578125 L 33.933594 28.667969 L 35.867188 21.710938 L 28.679688 29.3125 C 28.074219 29.949219 28.527344 31 29.40625 31 L 32.175781 31 C 32.964844 31 33.445313 31.871094 33.019531 32.539063 L 25.734375 43.960938 Z "></path>
        <path style=" fill:#8D6C9F;"
              d="M 31 2 C 15.007813 2 2 15.007813 2 31 C 2 46.992188 15.007813 60 31 60 C 46.992188 60 60 46.992188 60 31 C 60 15.007813 46.992188 2 31 2 Z M 31 58 C 16.113281 58 4 45.886719 4 31 C 4 16.113281 16.113281 4 31 4 C 45.886719 4 58 16.113281 58 31 C 58 45.886719 45.886719 58 31 58 Z "></path>
        <path style=" fill:#8D6C9F;"
              d="M 31 50 C 30.449219 50 30 50.449219 30 51 L 30 53 C 30 53.550781 30.449219 54 31 54 C 31.550781 54 32 53.550781 32 53 L 32 51 C 32 50.449219 31.550781 50 31 50 Z "></path>
        <path style=" fill:#8D6C9F;"
              d="M 37.011719 50.078125 C 36.871094 49.542969 36.324219 49.226563 35.789063 49.371094 C 35.253906 49.511719 34.9375 50.0625 35.082031 50.59375 L 35.597656 52.527344 C 35.71875 52.972656 36.121094 53.269531 36.5625 53.269531 C 36.648438 53.269531 36.734375 53.257813 36.824219 53.234375 C 37.355469 53.089844 37.671875 52.542969 37.53125 52.007813 Z "></path>
        <path style=" fill:#8D6C9F;"
              d="M 21.75 47.519531 C 21.269531 47.246094 20.660156 47.410156 20.382813 47.886719 L 19.382813 49.617188 C 19.109375 50.097656 19.273438 50.710938 19.75 50.984375 C 19.90625 51.074219 20.078125 51.117188 20.25 51.117188 C 20.59375 51.117188 20.929688 50.941406 21.117188 50.617188 L 22.117188 48.886719 C 22.390625 48.410156 22.230469 47.796875 21.75 47.519531 Z "></path>
        <path style=" fill:#8D6C9F;"
              d="M 41.617188 47.886719 C 41.339844 47.410156 40.726563 47.246094 40.25 47.523438 C 39.769531 47.796875 39.609375 48.410156 39.882813 48.886719 L 40.882813 50.621094 C 41.070313 50.941406 41.40625 51.121094 41.75 51.121094 C 41.921875 51.121094 42.09375 51.078125 42.25 50.984375 C 42.730469 50.710938 42.890625 50.097656 42.617188 49.621094 Z "></path>
        <path style=" fill:#8D6C9F;"
              d="M 26.210938 49.371094 C 25.675781 49.226563 25.128906 49.542969 24.988281 50.078125 L 24.46875 52.007813 C 24.324219 52.542969 24.644531 53.089844 25.175781 53.234375 C 25.261719 53.257813 25.351563 53.269531 25.433594 53.269531 C 25.878906 53.269531 26.28125 52.972656 26.398438 52.527344 L 26.917969 50.59375 C 27.0625 50.0625 26.746094 49.511719 26.210938 49.371094 Z "></path>
        <path style=" fill:#8D6C9F;"
              d="M 38.351563 11.320313 C 39.0625 11.589844 39.769531 11.898438 40.449219 12.242188 C 40.59375 12.3125 40.746094 12.347656 40.898438 12.347656 C 41.265625 12.347656 41.617188 12.148438 41.792969 11.800781 C 42.042969 11.304688 41.84375 10.703125 41.351563 10.457031 C 40.605469 10.078125 39.832031 9.742188 39.050781 9.449219 C 38.535156 9.257813 37.957031 9.519531 37.765625 10.035156 C 37.570313 10.554688 37.832031 11.128906 38.351563 11.320313 Z "></path>
        <path style=" fill:#8D6C9F;"
              d="M 10 31 C 10 25.390625 12.183594 20.117188 16.152344 16.152344 C 20.898438 11.402344 27.695313 9.203125 34.339844 10.265625 C 34.890625 10.355469 35.394531 9.980469 35.484375 9.4375 C 35.570313 8.890625 35.199219 8.378906 34.652344 8.289063 C 27.378906 7.125 19.9375 9.535156 14.738281 14.738281 C 10.394531 19.082031 8 24.855469 8 31 C 8 37.144531 10.394531 42.917969 14.738281 47.261719 C 14.933594 47.457031 15.1875 47.554688 15.445313 47.554688 C 15.699219 47.554688 15.957031 47.457031 16.152344 47.261719 C 16.542969 46.871094 16.542969 46.238281 16.152344 45.847656 C 12.183594 41.882813 10 36.609375 10 31 Z "></path>
        <path style=" fill:#8D6C9F;"
              d="M 47.261719 14.738281 C 46.601563 14.074219 45.898438 13.449219 45.171875 12.882813 C 44.734375 12.539063 44.105469 12.617188 43.765625 13.050781 C 43.425781 13.484375 43.5 14.113281 43.9375 14.453125 C 44.601563 14.976563 45.246094 15.546875 45.847656 16.152344 C 49.816406 20.117188 52 25.390625 52 31 C 52 36.609375 49.816406 41.882813 45.847656 45.847656 C 45.457031 46.238281 45.457031 46.871094 45.847656 47.261719 C 46.042969 47.457031 46.300781 47.554688 46.554688 47.554688 C 46.8125 47.554688 47.066406 47.457031 47.261719 47.261719 C 51.605469 42.917969 54 37.144531 54 31 C 54 24.855469 51.605469 19.082031 47.261719 14.738281 Z "></path>
        <path style=" fill:#8D6C9F;"
              d="M 42.144531 28.011719 L 34.492188 28.003906 L 37.953125 17.308594 C 38.09375 16.871094 37.921875 16.398438 37.535156 16.15625 C 37.148438 15.910156 36.644531 15.960938 36.3125 16.273438 L 19.394531 32.273438 C 19.097656 32.554688 19.003906 32.988281 19.152344 33.371094 C 19.304688 33.75 19.675781 34 20.082031 34 L 27.507813 34 L 23.144531 44.621094 C 22.96875 45.050781 23.113281 45.546875 23.492188 45.816406 C 23.664063 45.9375 23.867188 46 24.070313 46 C 24.308594 46 24.546875 45.914063 24.734375 45.75 L 42.808594 29.761719 C 43.117188 29.484375 43.226563 29.046875 43.078125 28.65625 C 42.933594 28.269531 42.5625 28.011719 42.144531 28.011719 Z M 26.632813 41.398438 L 29.925781 33.378906 C 30.050781 33.070313 30.015625 32.71875 29.832031 32.441406 C 29.644531 32.164063 29.332031 32 29 32 L 22.597656 32 L 34.84375 20.414063 L 32.164063 28.691406 C 32.066406 28.996094 32.121094 29.328125 32.308594 29.589844 C 32.496094 29.847656 32.796875 30 33.117188 30 L 39.507813 30.007813 Z "></path>
    </g>
</svg>